<svg width="100" height="115" viewBox="0 0 100 115" fill="none" xmlns="http://www.w3.org/2000/svg">
<rect y="7" width="100" height="100" rx="18" fill="#6D28D9"/>
<path d="M33.6562 80C32.0938 80 31.3125 79.2188 31.3125 77.6562V24.6875C31.3125 23.125 32.0938 22.3438 33.6562 22.3438H39.9062C41.4688 22.3438 42.25 23.125 42.25 24.6875V40.4688C42.25 41.5104 42.1979 42.5521 42.0938 43.5938H42.25C43.6042 41.3542 45.1146 39.8958 46.7812 39.2188C48.4479 38.5417 50.4531 38.2031 52.7969 38.2031C58.9167 38.2031 63.2135 40.3255 65.6875 44.5703C68.1875 48.7891 69.4375 53.763 69.4375 59.4922C69.4375 65.2214 68.1875 70.2083 65.6875 74.4531C63.2135 78.6719 58.9167 80.7812 52.7969 80.7812C50.4531 80.7812 48.4479 80.4427 46.7812 79.7656C45.1146 79.0885 43.6042 77.6302 42.25 75.3906H42.0938L41.9375 77.6562C41.8333 79.2188 41.1302 80 39.8281 80H33.6562ZM42.25 61.25C42.25 64.7656 42.9401 67.6302 44.3203 69.8438C45.7266 72.0312 47.4062 73.125 49.3594 73.125C52.875 73.125 55.1667 71.901 56.2344 69.4531C57.3281 66.9792 57.875 63.6589 57.875 59.4922C57.875 55.3255 57.3281 52.0182 56.2344 49.5703C55.1667 47.0964 52.875 45.8594 49.3594 45.8594C47.4062 45.8594 45.7266 46.9661 44.3203 49.1797C42.9401 51.3672 42.25 54.2188 42.25 57.7344V61.25Z" fill="white"/>
</svg>
